<svg width="100" height="100" viewBox="0 0 24 24" fill="none" xmlns="http://www.w3.org/2000/svg">
    <path d="M12 2C6.48 2 2 6.48 2 12C2 17.52 6.48 22 12 22C17.52 22 22 17.52 22 12C22 6.48 17.52 2 12 2ZM12.89 15.2H11.11L10.65 12.62H8V11.1H10.83L11.17 9.26H8.5V7.74H11.35L11.75 5.5H13.25L12.85 7.74H15.5V9.26H12.97L12.63 11.1H15.38V12.62H12.75L12.89 15.2ZM14.5 18.5C14.5 19.33 13.83 20 13 20C12.17 20 11.5 19.33 11.5 18.5C11.5 17.67 12.17 17 13 17C13.83 17 14.5 17.67 14.5 18.5Z" fill="currentColor"/>
</svg>
